<svg aria-hidden="true" style="position: absolute; width: 0; height: 0; overflow: hidden;" xmlns="http://www.w3.org/2000/svg">
    <defs>
        <symbol id="icon-antenna" viewBox="0 0 32 32">
            <path fill="#4d5ae5" style="fill: var(--color2, #4d5ae5);" d="M13.876 20.267h-.005a1.6 1.6 0 1 0-.004 3.2h.005a1.6 1.6 0 1 0 .004-3.2zm.373 1.978a.534.534 0 0 1-.752-.756.534.534 0 0 1 .373-.155.534.534 0 0 1 .374.911h.005z" />
            <path
                fill="#2e2f42"
                style="fill: var(--color1, #2e2f42);"
                d="m30.773 22.098-8.443-8.505.937-4.615c.242.094.499.144.758.146h.006a2.159 2.159 0 1 0-2.008-1.435l-4.96.605L8.972.161a.534.534 0 0 0-.377-.16.532.532 0 0 0-.373.155L6.709 1.66a.534.534 0 0 0 0 .754l.814.826a14.943 14.943 0 0 0 2.519 17.663.513.513 0 0 0 .146.098c-.034.18-.051.364-.052.547v6.187h-6.4a2.67 2.67 0 0 0-2.667 2.667v1.067c0 .295.239.533.533.533h24.533a.533.533 0 0 0 .533-.533v-1.067a2.67 2.67 0 0 0-2.667-2.667h-6.4v-2.742a15.09 15.09 0 0 0 3.049.32 14.854 14.854 0 0 0 7.04-1.783l.818.823a.534.534 0 0 0 .377.16.532.532 0 0 0 .373-.155l1.513-1.504a.534.534 0 0 0 0-.754zM23.28 6.233a1.067 1.067 0 1 1 .753 1.822h-.003a1.067 1.067 0 0 1-.747-1.823h-.002zm-1.256 3.505-.598 2.946-1.175-1.182 1.774-1.763zm-.605-.902-1.92 1.909-1.485-1.493 3.405-.415zM24.004 28.8a1.6 1.6 0 0 1 1.6 1.6v.533H2.137V30.4a1.6 1.6 0 0 1 1.6-1.6h20.267zm-7.467-2.133v1.067h-5.333v-1.067h5.333zM11.204 25.6v-4.053c0-1.294 1.196-2.347 2.667-2.347s2.667 1.053 2.667 2.347V25.6h-5.333zm6.4-1.696v-2.357c0-1.882-1.675-3.413-3.733-3.413a3.8 3.8 0 0 0-3.281 1.786A13.87 13.87 0 0 1 8.311 4.033l18.602 18.708a13.818 13.818 0 0 1-9.309 1.163zm11.289-.684L7.836 2.039l.755-.752 7.935 7.98c.004 0 .006.007.01.01l13.115 13.191-.757.752z"
            />
        </symbol>
        <symbol id="icon-astronaut" viewBox="0 0 32 32">
            <path
                fill="#4d5ae5"
                style="fill: var(--color2, #4d5ae5);"
                d="M26.134 20.522h-1.067v1.067h1.067v-1.067zm5.84-15.998a.534.534 0 0 0-.43-.363l-1.91-.278-.855-1.731c-.179-.365-.777-.365-.956 0l-.855 1.731-1.91.278a.535.535 0 0 0-.296.91l1.383 1.348-.326 1.903c-.034.2.048.402.212.522a.53.53 0 0 0 .562.04l1.709-.899 1.709.899a.536.536 0 0 0 .775-.563l-.326-1.903 1.383-1.348a.536.536 0 0 0 .135-.547zm-2.463 1.327a.534.534 0 0 0-.153.472l.191 1.114-1-.526a.533.533 0 0 0-.498 0l-1.001.526.191-1.114a.534.534 0 0 0-.153-.472l-.81-.789 1.119-.163a.532.532 0 0 0 .402-.292l.5-1.013.5 1.013a.535.535 0 0 0 .402.292l1.119.163-.809.789zm-3.377 16.805h-1.067v1.067h1.067v-1.067zm1.066-1.067h-1.067v1.067H27.2v-1.067zm-2.133 0H24v1.067h1.067v-1.067zm-2.667 4.8h-1.067v1.067H22.4v-1.067zm0 2.133h-1.067v1.067H22.4v-1.067zm1.067-1.066H22.4v1.067h1.067v-1.067zm-2.134 0h-1.067v1.067h1.067v-1.067zM16 24.256h-1.067v1.067H16v-1.067zm0 2.133h-1.067v1.067H16v-1.067zm1.067-1.067H16v1.067h1.067v-1.067zm-2.134 0h-1.067v1.067h1.067v-1.067zm-9.066-19.2H4.8v1.067h1.067V6.122zm0 2.133H4.8v1.067h1.067V8.255z"
            />
            <path fill="#4d5ae5" style="fill: var(--color2, #4d5ae5);" d="M6.933 7.189H5.866v1.067h1.067V7.189zm-2.133 0H3.733v1.067H4.8V7.189z" />
            <path
                fill="#2e2f42"
                style="fill: var(--color1, #2e2f42);"
                d="M24.715 14.159a1.775 1.775 0 0 0-1.188-.705 1.778 1.778 0 0 0-1.34.352l-1.252.96-1.898 1.417-1.358-.541c2.421-1.086 4.114-3.508 4.114-6.32 0-3.823-3.123-6.933-6.961-6.933s-6.961 3.11-6.961 6.933a6.86 6.86 0 0 0 1.12 3.758l-2.764-.024h-.005c-.009 0-.015.004-.023.005a.515.515 0 0 0-.155.031l-.038.013c-.006.003-.013.003-.019.006l-3.233 1.596-.001.001-1.893.911a.397.397 0 0 0-.063.035 1.779 1.779 0 0 0-.598 2.295c.22.429.595.745 1.056.889a1.776 1.776 0 0 0 1.378-.128l1.388-.738 2.264-1.169 1.357-.008L2.2 22.211l-.002.001-1.339 1.333c-.316.315-.49.732-.49 1.178s.174.863.49 1.179c.325.323.752.485 1.179.485s.854-.162 1.18-.485l1.314-1.309 1.741-1.3.901.897-1.762 1.754-.002.001-1.339 1.333c-.316.315-.49.732-.49 1.178s.174.863.49 1.179c.325.323.753.485 1.18.485s.855-.162 1.18-.485l3.482-3.467.001-.002 1.01-1-.004-.004c.006-.006.015-.009.022-.015l5.166-5.658 3.471.494a.52.52 0 0 0 .262-.033c.018-.006.033-.015.05-.023.019-.01.039-.015.058-.027l3.213-2.133c.012-.008.018-.021.029-.029.013-.01.029-.014.041-.026l1.271-1.191c.662-.62.753-1.635.212-2.362zM2.13 17.77a.714.714 0 0 1-.558.052.717.717 0 0 1-.213-1.26l1.314-.632.449 1.313-.992.527zm3.498-1.828-1.548.8-.439-1.283 2.027-1.001-.04 1.484zm15.099-6.62a5.79 5.79 0 0 1-.599 2.559l-4.181-1.899a1.863 1.863 0 0 0-.788-1.388l1.464-4.86c2.378.756 4.105 2.974 4.105 5.588zm-11.789 0c0-3.235 2.644-5.867 5.894-5.867.253 0 .5.021.745.052l-1.432 4.754c-.019-.001-.037-.006-.057-.006-1.033 0-1.873.837-1.873 1.867s.84 1.867 1.873 1.867c.694 0 1.294-.383 1.618-.945l3.862 1.755a5.894 5.894 0 0 1-4.737 2.39c-3.25 0-5.894-2.632-5.894-5.867zm5.956.8c0 .441-.362.8-.806.8s-.806-.359-.806-.8c0-.441.362-.8.806-.8s.806.359.806.8zM2.465 25.146a.608.608 0 0 1-.854.001.592.592 0 0 1 0-.844l.962-.958.851.848-.959.955zm3.214 3.734a.608.608 0 0 1-.855.001.592.592 0 0 1 0-.844l.963-.959.852.848-.96.955zm3.481-3.469-.002.001-1.765 1.76-.852-.848 1.763-1.755.002-.001c.04-.04.065-.088.09-.135.007-.014.02-.026.026-.04.017-.041.019-.085.026-.129.003-.025.014-.047.014-.073 0-.036-.013-.07-.02-.106-.006-.032-.006-.065-.019-.095a.55.55 0 0 0-.091-.138c-.01-.012-.014-.027-.025-.038h-.001l-.001-.002-1.607-1.6c-.017-.017-.039-.024-.058-.038a.507.507 0 0 0-.087-.058.515.515 0 0 0-.093-.033.507.507 0 0 0-.103-.02.5.5 0 0 0-.095.005.53.53 0 0 0-.104.02.477.477 0 0 0-.094.045c-.02.011-.042.015-.061.029L4.23 23.486l-.901-.897 2.399-2.386 4.361 4.289-.928.919zm6.819-7.017c-.015-.002-.03.004-.045.003a.556.556 0 0 0-.3.075.492.492 0 0 0-.083.061c-.013.011-.028.017-.04.029l-4.698 5.146-4.328-4.257 2.833-2.818a.534.534 0 0 0-.379-.911v-.001l-2.219.013.028-1.607 3.104.027a6.947 6.947 0 0 0 4.981 2.101c.437 0 .864-.045 1.279-.123.04.032.079.065.13.085l2.41.96.152.758.178.885-3.003-.427zm4.041.178-.313-1.558 1.446-1.08.947 1.257-2.08 1.381zm3.754-2.831-.838.785-.931-1.236.831-.637a.735.735 0 0 1 .543-.143.718.718 0 0 1 .48.284.713.713 0 0 1-.085.947z"
            />
            <path
                fill="#2e2f42"
                style="fill: var(--color1, #2e2f42);"
                d="m13.602 18.544-2.143-2.133a.534.534 0 0 0-.753 0l-2.142 2.133a.537.537 0 0 0 0 .756l2.142 2.133a.536.536 0 0 0 .753 0l2.143-2.133a.535.535 0 0 0 0-.756zm-2.519 1.759-1.387-1.381 1.387-1.381 1.387 1.381-1.387 1.381zm6.081-15.232-.258 1.036c.071.018 1.738.452 1.738 2.149h1.067c0-2.017-1.666-2.965-2.547-3.185zm2.547 4.251h-1.067v1.067h1.067V9.322z"
            />
        </symbol>
        <symbol id="icon-clock" viewBox="0 0 32 32">
            <path
                fill="#2e2f42"
                style="fill: var(--color1, #2e2f42);"
                d="M31.297 15.301C31.295 6.849 24.442-.002 15.989 0S.686 6.855.688 15.308a15.304 15.304 0 0 0 10.649 14.576.662.662 0 0 0 .529-.065.637.637 0 0 0 .283-.356l3.865-12.25a1.912 1.912 0 1 0-.84-3.635l-5.106-5.107a.637.637 0 0 0-.902.902l5.103 5.109a1.876 1.876 0 0 0 .536 2.309l-3.683 11.673C3.844 25.783.118 17.71 2.799 10.432S13.553-.572 20.831 2.109c7.278 2.681 11.004 10.754 8.323 18.032a14.042 14.042 0 0 1-7.462 7.973l-.398-1.874a.637.637 0 0 0-1.049-.344l-3.837 3.426a.637.637 0 0 0 .231 1.084l4.899 1.564a.638.638 0 0 0 .819-.74l-.391-1.839a15.255 15.255 0 0 0 9.329-14.089zm-15.305-.637a.638.638 0 1 1 0 1.277.638.638 0 0 1 0-1.277zm2.101 14.864 2.184-1.948.603 2.84-2.787-.892z"
            />
            <path
                fill="#4d5ae5"
                style="fill: var(--color2, #4d5ae5);"
                d="M15.354 3.185V4.46a.638.638 0 1 0 1.276 0V3.185a.638.638 0 0 0-1.276 0zM3.876 14.664a.638.638 0 0 0 0 1.276h1.275a.638.638 0 1 0 0-1.276H3.876zm24.232 1.275a.638.638 0 1 0 0-1.276h-1.275a.638.638 0 0 0 0 1.276h1.275z"
            />
        </symbol>
        <symbol id="icon-diagram" viewBox="0 0 32 32">
            <path fill="#4d5ae5" style="fill: var(--color2, #4d5ae5);" d="M14.926 14.965h1.066v4.798h-1.066v-4.797zm4.264 2.132h1.066v2.665H19.19v-2.665zm-8.529 1.599h1.066v1.066h-1.066v-1.066zm-3.198-.533h1.066v1.599H7.463v-1.599z" />
            <path
                fill="#2e2f42"
                style="fill: var(--color1, #2e2f42);"
                d="M1.599 28.291h25.587a1.6 1.6 0 0 0 1.599-1.599V24.56a1.6 1.6 0 0 0-1.599-1.599h-.533V9.668L29.681 6.8a1.608 1.608 0 1 0-.746-.763L26.654 8.2V6.97a1.6 1.6 0 0 0-1.599-1.599H3.733A1.6 1.6 0 0 0 2.134 6.97v15.992h-.533a1.6 1.6 0 0 0-1.599 1.599v2.132a1.6 1.6 0 0 0 1.599 1.599zM30.384 4.837a.533.533 0 1 1 0 1.067.533.533 0 0 1 0-1.067zM3.198 6.969c0-.294.239-.533.533-.533h21.322c.294 0 .533.239.533.533v2.239l-1.066 1.013V8.035a.533.533 0 0 0-.533-.533H4.797a.533.533 0 0 0-.533.533v13.326c0 .294.239.533.533.533h19.19a.533.533 0 0 0 .533-.533v-9.674l1.066-1.01v12.284H3.198V6.969zm4.798 6.93a1.598 1.598 0 1 0 1.107 2.749l1.853.93a.532.532 0 0 0 .636-.123l3.939-4.431 3.872 2.901a.533.533 0 0 0 .686-.039l3.365-3.188v8.131H5.33V8.569h18.124v2.66l-3.771 3.572-3.904-2.927a.533.533 0 0 0-.718.072l-3.993 4.493-1.493-.746c.011-.064.018-.129.02-.193a1.6 1.6 0 0 0-1.599-1.599zm.533 1.599a.533.533 0 1 1-1.067 0 .533.533 0 0 1 1.067 0zm3.198 8.529h5.331v.533a.533.533 0 0 1-.533.533h-4.264a.533.533 0 0 1-.533-.533v-.533zm-10.661.533c0-.294.239-.533.533-.533h9.062v.533a1.6 1.6 0 0 0 1.599 1.599h4.264a1.6 1.6 0 0 0 1.599-1.599v-.533h9.062c.294 0 .533.239.533.533v2.132a.533.533 0 0 1-.533.533H1.598a.533.533 0 0 1-.533-.533V24.56z"
            />
        </symbol>
        <symbol id="icon-facebook" viewBox="0 0 32 32">
            <path
                fill="#f4f4fd"
                style="fill: var(--color3, #f4f4fd);"
                d="M21.329 5.313h2.921V.225C23.746.156 22.013 0 19.994 0c-4.212 0-7.097 2.649-7.097 7.519V12H8.249v5.688h4.648V32h5.699V17.689h4.46l.708-5.688h-5.169V8.082c.001-1.644.444-2.769 2.735-2.769z"
            />
        </symbol>
        <symbol id="icon-instagram" viewBox="0 0 32 32">
            <path
                fill="#f4f4fd"
                style="fill: var(--color3, #f4f4fd);"
                d="M31.969 9.408c-.075-1.7-.35-2.869-.744-3.882a7.803 7.803 0 0 0-1.85-2.838A7.867 7.867 0 0 0 26.543.844C25.524.45 24.361.175 22.661.1 20.948.019 20.404 0 16.06 0s-4.888.019-6.595.094c-1.7.075-2.869.35-3.882.744a7.803 7.803 0 0 0-2.838 1.85A7.867 7.867 0 0 0 .901 5.52C.507 6.539.232 7.702.157 9.402c-.081 1.713-.1 2.257-.1 6.601s.019 4.888.094 6.595c.075 1.7.35 2.869.744 3.882a7.895 7.895 0 0 0 1.85 2.838 7.867 7.867 0 0 0 2.832 1.844c1.019.394 2.182.669 3.882.744 1.706.075 2.25.094 6.595.094s4.888-.018 6.595-.094c1.7-.075 2.869-.35 3.882-.744a8.181 8.181 0 0 0 4.682-4.682c.394-1.019.669-2.182.744-3.882.075-1.707.094-2.251.094-6.595s-.006-4.888-.081-6.595zm-2.882 13.065c-.069 1.563-.331 2.407-.55 2.969a5.307 5.307 0 0 1-3.038 3.038c-.563.219-1.413.481-2.969.55-1.688.075-2.194.094-6.464.094s-4.782-.018-6.464-.094c-1.563-.069-2.407-.331-2.969-.55a4.926 4.926 0 0 1-1.838-1.194 4.974 4.974 0 0 1-1.194-1.838c-.219-.563-.481-1.413-.55-2.969-.075-1.688-.094-2.194-.094-6.464s.019-4.782.094-6.464c.069-1.563.331-2.407.55-2.969a4.868 4.868 0 0 1 1.2-1.838A4.974 4.974 0 0 1 6.639 3.55c.563-.219 1.413-.481 2.969-.55 1.688-.075 2.194-.094 6.464-.094 4.276 0 4.782.019 6.464.094 1.563.069 2.407.331 2.969.55a4.914 4.914 0 0 1 1.838 1.194 4.974 4.974 0 0 1 1.194 1.838c.219.563.481 1.413.55 2.969.075 1.688.094 2.194.094 6.464s-.019 4.77-.094 6.457z"
            />
            <path
                fill="#f4f4fd"
                style="fill: var(--color3, #f4f4fd);"
                d="M16.059 7.782c-4.538 0-8.22 3.682-8.22 8.22s3.682 8.22 8.22 8.22 8.22-3.682 8.22-8.22-3.682-8.22-8.22-8.22zm0 13.553a5.333 5.333 0 0 1 0-10.664 5.333 5.333 0 0 1 0 10.664zM26.524 7.457a1.919 1.919 0 1 1-3.838 0 1.919 1.919 0 0 1 3.838 0z"
            />
        </symbol>
        <symbol id="icon-linkedin" viewBox="0 0 32 32">
            <path
                fill="#f4f4fd"
                style="fill: var(--color3, #f4f4fd);"
                d="M31.992 32v-.001H32V20.263c0-5.741-1.236-10.164-7.948-10.164-3.227 0-5.392 1.771-6.276 3.449h-.093v-2.913h-6.364v21.364h6.627V21.42c0-2.785.528-5.479 3.977-5.479 3.399 0 3.449 3.179 3.449 5.657v10.401h6.62zM.528 10.636h6.635V32H.528V10.636zM3.843 0C1.722 0 0 1.721 0 3.843s1.721 3.879 3.843 3.879c2.121 0 3.843-1.757 3.843-3.879A3.846 3.846 0 0 0 3.843 0z"
            />
        </symbol>
        <symbol id="icon-logo1" viewBox="0 0 32 32">
            <path
                d="m6.531 0 4.577 4.36-8.495-.005v21.154h22.204v-8.088l4.571 4.355V0H6.531zm18.084 16.909L11.639 4.546h12.976v12.363zm-4.028 5.506H6.126V8.188h1.022v13.264h13.439v.963zM9.01 29.428l-.539-1.108h-.445l.781 1.467v.855h.403v-.855l.781-1.467h-.443l-.539 1.108zm1.986-1.108h.096l.877 2.321h-.421l-.188-.544h-.899l-.187.544h-.419l.874-2.321h.268zm-.425 1.46h.68l-.34-.985-.339.985zm2.805-.385-.05-.065a1.193 1.193 0 0 1-.139-.228.622.622 0 0 1 .026-.543.502.502 0 0 1 .212-.201.677.677 0 0 1 .32-.072c.118 0 .22.024.305.072a.508.508 0 0 1 .198.186c.047.078.07.163.07.255 0 .073-.013.14-.04.201s-.063.116-.11.166-.101.097-.163.142l-.161.117.46.543a.944.944 0 0 0 .1-.434h.332c0 .113-.011.22-.034.321a.997.997 0 0 1-.17.383l.34.401h-.445l-.135-.159a.903.903 0 0 1-.238.13c-.113.04-.233.061-.36.061-.154 0-.288-.028-.4-.084s-.2-.134-.261-.233a.634.634 0 0 1-.032-.589.77.77 0 0 1 .161-.201c.063-.057.134-.114.215-.171zm.191.234-.048.035a.633.633 0 0 0-.126.132.387.387 0 0 0-.023.392.34.34 0 0 0 .129.132.422.422 0 0 0 .209.048.6.6 0 0 0 .375-.132l-.517-.608zm.091-.424.142-.096a.522.522 0 0 0 .144-.131.289.289 0 0 0 .043-.163.231.231 0 0 0-.244-.223.235.235 0 0 0-.222.137.33.33 0 0 0 .01.284.93.93 0 0 0 .127.192zm4.062.68h-.399a.741.741 0 0 1-.073.257c-.036.069-.09.122-.161.158s-.162.054-.276.054c-.094 0-.174-.019-.241-.056s-.122-.09-.166-.158a.782.782 0 0 1-.096-.244 1.565 1.565 0 0 1-.03-.319v-.196c0-.123.011-.233.033-.328.023-.097.058-.178.104-.244s.103-.116.171-.15a.53.53 0 0 1 .239-.051.56.56 0 0 1 .271.057.357.357 0 0 1 .156.163.748.748 0 0 1 .07.257h.399a.99.99 0 0 0-.131-.413c-.07-.12-.169-.214-.297-.282s-.284-.102-.469-.102a.975.975 0 0 0-.394.077.824.824 0 0 0-.298.222.992.992 0 0 0-.191.346 1.458 1.458 0 0 0-.065.453v.193c0 .167.021.318.064.453.044.135.106.25.188.346.082.095.18.168.295.22a.945.945 0 0 0 .387.077c.187 0 .346-.034.477-.102s.232-.161.305-.279a.929.929 0 0 0 .128-.407zm2.214-.341v-.128c0-.175-.023-.332-.07-.47a1.03 1.03 0 0 0-.196-.356.825.825 0 0 0-.305-.225.963.963 0 0 0-.392-.078c-.142 0-.273.026-.391.078s-.218.126-.305.225a1.04 1.04 0 0 0-.198.356c-.047.138-.07.295-.07.47v.128c0 .175.023.333.07.472.048.139.115.258.201.356s.188.173.305.225a.974.974 0 0 0 .391.077.98.98 0 0 0 .392-.077.84.84 0 0 0 .303-.225c.085-.098.15-.216.196-.356s.069-.297.069-.472zm-.4-.131v.131c0 .13-.013.244-.038.344a.776.776 0 0 1-.108.254.479.479 0 0 1-.175.155.53.53 0 0 1-.238.051.528.528 0 0 1-.236-.051.507.507 0 0 1-.179-.155c-.049-.069-.086-.154-.112-.254s-.038-.215-.038-.344v-.131c0-.13.013-.244.038-.343.026-.1.062-.183.11-.25s.108-.119.177-.153c.069-.035.148-.053.236-.053s.167.018.238.053c.07.034.129.085.177.153s.086.15.11.25c.026.099.038.213.038.343z"
            />
        </symbol>
        <symbol id="icon-logo2" viewBox="0 0 25 32">
            <path
                d="M10.531 1.806h-.084a9.985 9.985 0 0 0-.388-.014h-.28c-.244 0-.494.006-.741.019a.523.523 0 0 0-.056 0 17.4 17.4 0 0 0-6.471 1.651l-.266.128v13.625l.623-.211a23.32 23.32 0 0 1 1.731-.513 21.155 21.155 0 0 1 4.982-.662v1.79a15.56 15.56 0 0 0-.655.019h-.051a19.948 19.948 0 0 0-3.833.588c-1.59.398-3.124.996-4.566 1.779V2.53A18.3 18.3 0 0 1 5.266.582 18.343 18.343 0 0 1 9.781 0h.263c.314.008.621.022.909.044.759.053 1.511.173 2.249.358v1.762a13.947 13.947 0 0 0-2.179-.329l-.045-.004c-.152-.013-.304-.026-.446-.026zm3.102 1.801c.391.03.796.044 1.205.044a19.352 19.352 0 0 0 4.747-.609c1.589-.4 3.123-.998 4.564-1.781v17.163a18.313 18.313 0 0 1-4.792 1.948 18.486 18.486 0 0 1-4.515.581 13.778 13.778 0 0 1-3.425-.404V3.274c.265.061.537.117.814.164.455.077.934.133 1.401.167zm8.734.133-.623.21c-.573.192-1.15.365-1.731.518a21.098 21.098 0 0 1-5.173.663c-.406 0-.78-.011-1.141-.034l-.497-.033v14.017l.427.038c.395.034.803.052 1.214.052a16.573 16.573 0 0 0 4.074-.527 17.107 17.107 0 0 0 3.184-1.144l.266-.128V3.742zM1.684 25.977a.912.912 0 0 0-.693-.28 1.034 1.034 0 0 0-.4.075.91.91 0 0 0-.512.518 1.023 1.023 0 0 0-.072.387v2.335c-.006.165.026.328.092.479.055.12.135.226.233.313a.815.815 0 0 0 .321.166c.114.032.231.048.349.049a.972.972 0 0 0 .892-.61.951.951 0 0 0 .075-.372v-.261h-.61v.208a.528.528 0 0 1-.036.208.359.359 0 0 1-.089.131.365.365 0 0 1-.128.067.425.425 0 0 1-.128.022.314.314 0 0 1-.286-.125.548.548 0 0 1-.081-.313v-2.177a.738.738 0 0 1 .075-.349.31.31 0 0 1 .299-.141.33.33 0 0 1 .272.131c.068.09.104.2.101.313v.202h.604v-.238a1.093 1.093 0 0 0-.279-.737zm3.626-.027a1.051 1.051 0 0 0-1.38 0 .961.961 0 0 0-.237.327 1.099 1.099 0 0 0-.089.452v2.239a1.08 1.08 0 0 0 .089.459c.055.12.136.227.237.313a.94.94 0 0 0 .322.197 1.028 1.028 0 0 0 .728 0c.121-.044.233-.111.33-.197a.948.948 0 0 0 .23-.313 1.08 1.08 0 0 0 .089-.459v-2.239a1.08 1.08 0 0 0-.089-.452 1.015 1.015 0 0 0-.23-.327zm-.285 3.019a.405.405 0 0 1-.121.324.445.445 0 0 1-.574 0 .397.397 0 0 1-.121-.324V26.73a.405.405 0 0 1 .121-.324.445.445 0 0 1 .574 0 .397.397 0 0 1 .121.324v2.239zm5.047 1V25.73h-.587l-.771 2.244h-.011l-.777-2.244h-.581v4.239h.606V27.39h.011l.593 1.823h.302l.598-1.823h.011v2.579h.606zm3.441-3.942a.84.84 0 0 0-.343-.232 1.363 1.363 0 0 0-.439-.066h-.9v4.239h.604v-1.656h.311c.188.009.376-.031.545-.116a.882.882 0 0 0 .332-.324 1.02 1.02 0 0 0 .139-.369c.024-.16.035-.321.033-.482a2.421 2.421 0 0 0-.059-.606.898.898 0 0 0-.223-.39zm-.312 1.292a.547.547 0 0 1-.056.221.346.346 0 0 1-.156.149.619.619 0 0 1-.285.053h-.275v-1.441h.311a.578.578 0 0 1 .272.053.349.349 0 0 1 .142.157.62.62 0 0 1 .053.236v.282c0 .099.006.2 0 .291h-.006zm3.173-1.589h-.495l-.934 4.239h.604l.177-.911h.823l.177.911h.604l-.957-4.239zm-.557 2.751.297-1.537h.011l.296 1.537h-.604zm4.46-.197h-.011l-.912-2.554h-.581v4.239h.604V27.42h.012l.923 2.549h.568V25.73h-.604v2.554zm3.691-2.554-.486 1.685h-.012l-.486-1.685h-.64l.83 2.447v1.792h.604v-1.792l.83-2.447h-.64zM0 31.166h.291v.817h.198v-.817h.29v-.167H.001v.167zm2.447-.168-.381.984h.21l.081-.224h.392l.084.224h.215l-.391-.984h-.21zm-.031.595.134-.365.134.365h-.268zm2.45.027h.227v.127a.382.382 0 0 1-.234.083.244.244 0 0 1-.209-.093.411.411 0 0 1-.073-.257c0-.219.095-.329.283-.329a.206.206 0 0 1 .222.157l.195-.038c-.042-.192-.181-.289-.417-.289a.495.495 0 0 0-.344.127.494.494 0 0 0-.141.379.532.532 0 0 0 .126.369.477.477 0 0 0 .374.144.59.59 0 0 0 .417-.157v-.388h-.427v.166zm2.471-.622h-.199v.984h.69v-.167h-.49v-.817zm2.089 0h-.199v.984h.199v-.984zm2.043.658-.403-.657h-.193v.984h.185v-.643l.395.643h.198v-.984h-.182v.657zm1.846-.107h.49v-.167h-.49v-.216h.528v-.167h-.727v.984h.747v-.167h-.548v-.266zm4.477-.162h-.388v-.388h-.198v.984h.198v-.43h.388v.43h.198v-.984h-.198v.388zm1.857.162h.492v-.167h-.492v-.216h.529v-.167h-.727v.984h.746v-.167h-.548v-.266zm2.519 0c.171-.027.258-.117.258-.274a.236.236 0 0 0-.096-.219.553.553 0 0 0-.288-.058h-.417v.984h.198v-.412h.039a.261.261 0 0 1 .123.022.21.21 0 0 1 .07.072l.215.313h.237l-.12-.192a.685.685 0 0 0-.218-.236zm-.199-.136h-.146v-.247h.156a.526.526 0 0 1 .201.023.135.135 0 0 1 .033.046.133.133 0 0 1-.005.111.128.128 0 0 1-.037.043.547.547 0 0 1-.201.023zm2.098.136h.49v-.167h-.49v-.216h.529v-.167h-.729v.984h.747v-.167h-.548v-.266z"
            />
        </symbol>
        <symbol id="icon-logo3" viewBox="0 0 34 32">
            <path
                d="M5.315 31.394c.013 0 .025.003.036.007s.022.011.03.019l.172.162a1.413 1.413 0 0 1-.485.307 1.897 1.897 0 0 1-.687.11 1.853 1.853 0 0 1-.646-.103 1.414 1.414 0 0 1-.487-.291 1.3 1.3 0 0 1-.315-.449 1.49 1.49 0 0 1-.11-.576 1.338 1.338 0 0 1 .453-1.027c.147-.127.323-.226.517-.293a2.07 2.07 0 0 1 .666-.103c.211-.004.422.028.618.094.171.063.327.151.463.26l-.144.173a.125.125 0 0 1-.037.031.098.098 0 0 1-.058.013.144.144 0 0 1-.062-.018l-.078-.046-.108-.059a1.198 1.198 0 0 0-.34-.103 1.567 1.567 0 0 0-.256-.018 1.421 1.421 0 0 0-.478.077 1.109 1.109 0 0 0-.375.217 1 1 0 0 0-.243.346 1.13 1.13 0 0 0-.088.457c-.003.158.027.315.088.464.053.127.134.244.239.344.099.093.221.166.358.214.141.05.292.075.444.074.088.001.176-.004.263-.015a1.068 1.068 0 0 0 .569-.237.13.13 0 0 1 .082-.029zm4.977-.814c.003.195-.037.389-.116.573-.07.166-.181.318-.325.445s-.317.226-.509.292a2.14 2.14 0 0 1-1.31 0 1.514 1.514 0 0 1-.506-.293 1.291 1.291 0 0 1-.327-.449 1.473 1.473 0 0 1 0-1.147c.074-.167.185-.32.327-.451.144-.123.317-.218.506-.282.421-.14.889-.14 1.31 0 .191.066.365.166.508.293a1.316 1.316 0 0 1 .441 1.02zm-.453 0a1.196 1.196 0 0 0-.082-.46.941.941 0 0 0-.231-.344 1.012 1.012 0 0 0-.364-.217 1.533 1.533 0 0 0-.952 0 1.026 1.026 0 0 0-.364.217.926.926 0 0 0-.233.344c-.11.3-.11.621 0 .92a.939.939 0 0 0 .233.344c.101.094.225.168.364.215.307.098.645.098.952 0 .139-.048.263-.121.364-.215a.967.967 0 0 0 .231-.344c.058-.148.085-.304.082-.46zm3.848.482.045.103c.017-.037.032-.07.05-.103a.833.833 0 0 1 .056-.101l1.101-1.71c.022-.029.041-.048.063-.053a.273.273 0 0 1 .09-.009h.325v2.781h-.386v-2.132a.769.769 0 0 1 0-.096l-1.107 1.734c-.014.026-.037.048-.065.063s-.061.023-.095.023h-.062c-.034 0-.066-.008-.095-.023s-.051-.037-.065-.064l-1.14-1.745v2.232h-.373v-2.776h.325a.336.336 0 0 1 .09.009c.027.011.048.03.06.053l1.125 1.712a.61.61 0 0 1 .056.099zm4.143-.138v1.042h-.431v-2.777h.961c.181-.003.362.017.536.061.139.034.269.093.379.173a.718.718 0 0 1 .215.272.814.814 0 0 1 .073.355.774.774 0 0 1-.313.633c-.111.084-.24.146-.381.184a1.847 1.847 0 0 1-.519.064l-.521-.007zm0-.298h.521c.113.001.226-.013.334-.042a.727.727 0 0 0 .241-.12.532.532 0 0 0 .198-.418c.005-.077-.01-.154-.043-.226s-.085-.137-.151-.19a.935.935 0 0 0-.579-.149h-.521v1.145zm5.791 1.344h-.34a.164.164 0 0 1-.095-.026.171.171 0 0 1-.056-.064l-.293-.672h-1.471l-.304.672a.162.162 0 0 1-.151.091h-.34l1.293-2.782h.448l1.31 2.782zm-2.133-1.033h1.215l-.513-1.132a1.783 1.783 0 0 1-.097-.261l-.05.145a1.317 1.317 0 0 1-.047.118l-.509 1.13zm3.995-1.736a.18.18 0 0 1 .065.05l1.885 2.097v-2.16h.386v2.782h-.215a.2.2 0 0 1-.088-.017.224.224 0 0 1-.069-.052l-1.883-2.095a.769.769 0 0 1 0 .096v2.068h-.386v-2.782h.228a.206.206 0 0 1 .078.013zm5.51 1.662v1.104h-.431v-1.104l-1.191-1.675h.386a.158.158 0 0 1 .093.024.248.248 0 0 1 .058.063l.745 1.081c.03.046.056.088.078.129s.039.079.054.118l.056-.12a.947.947 0 0 1 .073-.127l.735-1.088a.26.26 0 0 1 .056-.059.15.15 0 0 1 .093-.028h.39l-1.194 1.683zm-17.519-6.342c.187.02.377.037.569.052 2.907-1.111 5.366-2.93 7.07-5.228s2.577-4.975 2.511-7.696L20.42 8.912c.651 2.896.347 5.89-.88 8.647s-3.327 5.167-6.066 6.962z"
            />
            <path
                d="m12.33 24.393.086.015c2.927-1.789 5.158-4.286 6.406-7.17s1.454-6.021.592-9.006l-4.563-3.899c1.846 3.205 2.589 6.791 2.142 10.342s-2.063 6.921-4.663 9.718zm15.475-9.531c-.775 2.989-2.658 5.685-5.369 7.687a17.175 17.175 0 0 1-2.551 1.565c2.207-.554 4.236-1.534 5.93-2.865s3.008-2.975 3.84-4.808l-1.851-1.579z"
            />
            <path
                d="m27.079 14.422-2.635-2.251c-.05 2.567-.904 5.075-2.473 7.264s-3.795 3.98-6.448 5.185h.013c.591 0 1.182-.03 1.769-.09 2.479-.865 4.669-2.24 6.375-4.004s2.874-3.861 3.4-6.104zM12.711 2.689 9.568 0c-2.81.928-5.227 2.559-6.934 4.679S.009 9.311 0 11.885c.011 2.844 1.131 5.604 3.184 7.843s4.921 3.829 8.151 4.518c2.883-3.001 4.571-6.709 4.818-10.586s-.958-7.72-3.442-10.971zm21.63 11.319c-.011-3.374-1.585-6.608-4.378-8.994s-6.577-3.731-10.526-3.74a16.975 16.975 0 0 0-5.337.849l19.245 16.443c.659-1.454.997-2.999.995-4.558z"
            />
        </symbol>
        <symbol id="icon-logo4" viewBox="0 0 60 32">
            <path
                d="M11.628 8.523h-.002c-1.624 0-2.941 1.187-2.941 2.652v.002c0 1.464 1.317 2.652 2.941 2.652h.002c1.624 0 2.941-1.187 2.941-2.652v-.002c0-1.464-1.317-2.652-2.941-2.652zm21.707-.848c-.005-2.034-.903-3.984-2.498-5.422S27.08.004 24.824 0c-2.257.004-4.42.813-6.016 2.252s-2.494 3.389-2.499 5.423v11.216s17.024-1.709 17.026-11.215v-.002zM2.723 22.573c.004 1.415.629 2.772 1.739 3.773s2.614 1.565 4.184 1.569c1.569-.004 3.073-.568 4.183-1.569s1.735-2.356 1.74-3.771V14.77S2.724 15.96 2.724 22.573zm5.923 1.399c-.307 0-.607-.082-.862-.236s-.454-.372-.571-.628-.148-.537-.088-.808.208-.52.424-.716.493-.329.794-.383c.301-.054.613-.026.896.08s.526.285.696.515a1.289 1.289 0 0 1 .145 1.314 1.377 1.377 0 0 1-.336.455c-.144.13-.315.234-.504.304s-.391.107-.595.107v-.005zm10.832-2.515v2.904h-.598v-2.904h.598zm1.157 1.241v.467h-1.32v-.467h1.32zm.14-1.241v.469h-1.46v-.469h1.46zm2.733 1.384v.138c0 .221-.03.419-.09.594s-.144.325-.253.449a1.096 1.096 0 0 1-.391.281c-.15.065-.317.098-.501.098-.182 0-.349-.033-.501-.098a1.123 1.123 0 0 1-.391-.281 1.317 1.317 0 0 1-.257-.449 1.834 1.834 0 0 1-.09-.594v-.138c0-.222.03-.42.09-.594a1.31 1.31 0 0 1 .253-.449c.11-.124.241-.218.391-.283.152-.065.318-.098.501-.098.184 0 .35.033.501.098.152.065.282.16.391.283.11.124.195.273.255.449.061.174.092.372.092.594zm-.605.138v-.142c0-.154-.014-.29-.042-.407s-.069-.215-.124-.295a.535.535 0 0 0-.469-.242.535.535 0 0 0-.466.242c-.053.08-.094.178-.122.295s-.042.253-.042.407v.142c0 .153.014.289.042.407a.895.895 0 0 0 .124.297.547.547 0 0 0 .469.243c.101 0 .191-.021.269-.062s.144-.102.197-.181a.938.938 0 0 0 .122-.297c.028-.118.042-.254.042-.407zm2.548.622a.388.388 0 0 0-.024-.14.27.27 0 0 0-.084-.116c-.041-.036-.099-.071-.174-.106s-.171-.071-.289-.108a3.52 3.52 0 0 1-.375-.144 1.54 1.54 0 0 1-.311-.185.83.83 0 0 1-.211-.249.68.68 0 0 1-.076-.329c0-.121.027-.231.08-.329a.754.754 0 0 1 .223-.255c.096-.072.209-.127.339-.166.132-.039.276-.058.433-.058.214 0 .401.039.56.116s.283.183.371.317a.815.815 0 0 1 .134.461h-.594a.444.444 0 0 0-.054-.223.373.373 0 0 0-.16-.154.571.571 0 0 0-.267-.056.614.614 0 0 0-.259.048.348.348 0 0 0-.156.126.306.306 0 0 0-.052.176c0 .049.012.094.036.134.025.04.063.077.112.112s.11.067.181.098c.072.031.155.06.249.09.158.048.297.102.417.162.121.06.222.127.303.201s.142.159.184.253a.796.796 0 0 1 .062.321c0 .126-.025.239-.074.339s-.12.184-.213.253-.204.122-.333.158-.273.054-.433.054c-.144 0-.285-.019-.425-.056a1.272 1.272 0 0 1-.381-.174.844.844 0 0 1-.373-.72h.6c0 .09.014.167.042.229s.067.113.118.152a.513.513 0 0 0 .183.084c.072.017.15.026.235.026a.638.638 0 0 0 .255-.044.314.314 0 0 0 .2-.298zm2.303-2.144v2.904h-.596v-2.904h.596zm.894 0v.469h-2.37v-.469h2.37zm2.29 2.438v.467h-1.546v-.467h1.546zm-1.351-2.438v2.904h-.598v-2.904h.598zm1.149 1.183v.455h-1.344v-.455h1.344zm.2-1.183v.469h-1.544v-.469h1.544zm.351 0h1.083c.222 0 .413.033.572.1.161.067.285.165.371.295s.13.291.13.481a.928.928 0 0 1-.08.401.757.757 0 0 1-.221.277 1.145 1.145 0 0 1-.333.176l-.189.1h-.941l-.004-.467h.7c.105 0 .192-.019.261-.056s.121-.089.156-.156a.478.478 0 0 0 .054-.231c0-.093-.017-.174-.052-.241s-.087-.12-.158-.156-.159-.054-.265-.054h-.485v2.435h-.598v-2.904zm1.624 2.904-.662-1.294.632-.004.67 1.271v.028h-.64zm3.141-1.035h-.74v-.467h.74a.61.61 0 0 0 .279-.056c.072-.039.124-.092.158-.16s.05-.144.05-.229c0-.086-.017-.167-.05-.241s-.086-.134-.158-.18-.165-.068-.279-.068h-.533v2.435h-.598v-2.904h1.131c.227 0 .422.041.584.124.164.081.289.193.375.337s.13.308.13.493c0 .188-.043.35-.13.487s-.211.243-.375.317a1.399 1.399 0 0 1-.584.112zm3.451.569v.467h-1.546v-.467h1.546zm-1.35-2.438v2.904h-.598v-2.904h.598zm1.148 1.183v.455h-1.344v-.455h1.344zm.2-1.183v.469h-1.544v-.469h1.544zm1.689 0v2.904h-.596v-2.904h.596zm.894 0v.469h-2.37v-.469h2.37zm2.29 2.438v.467h-1.546v-.467h1.546zm-1.35-2.438v2.904h-.598v-2.904h.598zm1.149 1.183v.455h-1.344v-.455h1.344zm.199-1.183v.469h-1.544v-.469h1.544zm.351 0h1.083c.222 0 .413.033.573.1.161.067.285.165.371.295s.13.291.13.481a.928.928 0 0 1-.08.401.757.757 0 0 1-.221.277 1.145 1.145 0 0 1-.333.176l-.19.1h-.941l-.004-.467h.7c.105 0 .192-.019.261-.056s.121-.089.156-.156a.478.478 0 0 0 .054-.231c0-.093-.017-.174-.052-.241s-.087-.12-.158-.156a.579.579 0 0 0-.265-.054h-.485v2.435h-.598v-2.904zm1.624 2.904-.662-1.294.632-.004.67 1.271v.028h-.64zm2.505-.76a.388.388 0 0 0-.024-.14.27.27 0 0 0-.084-.116c-.041-.036-.099-.071-.174-.106s-.171-.071-.289-.108a3.52 3.52 0 0 1-.375-.144 1.54 1.54 0 0 1-.311-.185.83.83 0 0 1-.211-.249.68.68 0 0 1-.076-.329c0-.121.027-.231.08-.329a.754.754 0 0 1 .223-.255c.096-.072.209-.127.339-.166.132-.039.276-.058.433-.058.214 0 .401.039.56.116s.283.183.371.317a.815.815 0 0 1 .134.461h-.594a.444.444 0 0 0-.054-.223.373.373 0 0 0-.16-.154.571.571 0 0 0-.267-.056.614.614 0 0 0-.259.048.348.348 0 0 0-.156.126.306.306 0 0 0-.052.176c0 .049.012.094.036.134.025.04.063.077.112.112s.11.067.181.098c.072.031.155.06.249.09.158.048.297.102.417.162.121.06.222.127.303.201s.142.159.184.253a.796.796 0 0 1 .062.321c0 .126-.025.239-.074.339s-.12.184-.213.253-.204.122-.333.158-.273.054-.433.054c-.144 0-.285-.019-.425-.056a1.272 1.272 0 0 1-.381-.174.844.844 0 0 1-.373-.72h.6c0 .09.014.167.042.229s.067.113.118.152a.51.51 0 0 0 .184.084c.072.017.15.026.235.026a.638.638 0 0 0 .255-.044.314.314 0 0 0 .2-.298z"
            />
        </symbol>
        <symbol id="icon-logo5" viewBox="0 0 44 32">
            <path
                d="M3.333 26.694c.171.19.262.429.257.673.009.16-.023.319-.091.466s-.174.279-.307.384a1.857 1.857 0 0 1-1.157.31H0v-4.266h1.993a1.85 1.85 0 0 1 1.104.283c.129.097.231.22.298.358s.098.289.089.44a.917.917 0 0 1-.232.652c-.155.17-.368.287-.607.334.27.044.514.174.688.365zM.947 26.05h.852a.869.869 0 0 0 .542-.142c.064-.052.114-.117.145-.189s.045-.15.037-.228c.006-.077-.007-.155-.038-.227s-.08-.137-.142-.19a.896.896 0 0 0-.558-.144H.947v1.119zm1.477 1.636c.068-.053.122-.12.157-.195s.05-.157.044-.238c.005-.082-.011-.165-.046-.24s-.09-.143-.16-.197a.95.95 0 0 0-.579-.154H.946v1.173h.905a.973.973 0 0 0 .572-.148zm4.984.842-1.109-1.667h-.417v1.667h-.954v-4.266h1.806a1.91 1.91 0 0 1 1.257.363c.252.232.405.537.429.86s-.08.645-.295.905c-.223.23-.527.383-.861.433l1.181 1.705H7.408zM5.882 26.28h.78c.542 0 .813-.215.813-.646.005-.088-.009-.176-.044-.259s-.087-.158-.155-.221a.912.912 0 0 0-.613-.173h-.789l.009 1.298zm6.739 1.39H10.72l-.336.859h-1l1.745-4.218h1.081l1.739 4.218h-1l-.329-.859zm-.255-.646-.695-1.801-.694 1.801h1.389zm6.781 1.504H18.2l-2.123-2.901v2.901h-.944v-4.266h.944L18.2 27.18v-2.918h.947v4.266zm5.403-1.021a1.96 1.96 0 0 1-.857.752c-.412.187-.869.28-1.331.269h-1.685v-4.266h1.685c.461-.011.918.079 1.331.263.362.164.661.424.857.744.195.347.296.73.296 1.119s-.102.772-.296 1.119zm-1.084-.102c.27-.283.419-.645.419-1.018s-.149-.735-.419-1.018a1.766 1.766 0 0 0-1.185-.363h-.657v2.761h.657c.433.024.859-.106 1.185-.363zM13.214.533s12.22 4.154 11.961 10.164v10.166s-12.211-4.156-11.957-10.166L13.213.533zm22.848 17.95c2.308-1.43 4.978-2.316 7.764-2.576v-3.182c-3.211 1.114-5.935 3.134-7.764 5.758z"
            />
            <path d="M34.675 19.442c1.889-3.424 5.164-6.067 9.151-7.384v-9.17S26.422 8.805 26.79 17.364v14.474s.776-.265 1.995-.761c0-.463 0-.929.056-1.398.36-3.974 2.459-7.656 5.834-10.237z" />
            <path
                d="M33.02 24.819c.091-1.004.295-1.997.609-2.963-2.102 2.229-3.374 4.995-3.639 7.909-.025.275-.039.55-.046.834a52.536 52.536 0 0 0 3.347-1.588 13.52 13.52 0 0 1-.271-4.191zm.692.052a12.935 12.935 0 0 0 .215 3.795c4.755-2.561 10.098-6.519 9.892-11.302v-.417c-3.397.342-6.575 1.679-9.047 3.805a13.074 13.074 0 0 0-1.06 4.118z"
            />
        </symbol>
        <symbol id="icon-logo6" viewBox="0 0 65 32">
            <path
                d="M32.979 13.724a1.892 1.892 0 0 1-.388-1.275v-1.848c0-.567.129-.997.386-1.292s.699-.441 1.325-.44c.588 0 1.006.125 1.253.376.269.32.4.711.37 1.106v.434h-1.052v-.44a2.227 2.227 0 0 0-.03-.431.418.418 0 0 0-.15-.256.613.613 0 0 0-.381-.1.648.648 0 0 0-.401.105.485.485 0 0 0-.174.282 2.13 2.13 0 0 0-.041.457v2.243c-.017.216.03.433.135.63.052.067.125.12.21.153s.179.045.272.035a.575.575 0 0 0 .373-.101.448.448 0 0 0 .157-.273c.025-.149.036-.299.033-.449v-.455h1.052v.416c.03.411-.098.82-.364 1.162-.242.274-.654.412-1.259.412s-1.063-.147-1.323-.451zm4.382.019c-.266-.288-.399-.707-.399-1.262v-1.944c0-.549.133-.965.399-1.247s.71-.422 1.334-.421c.619 0 1.061.14 1.327.421.266.282.401.698.401 1.247v1.944c0 .549-.135.97-.405 1.26s-.71.434-1.323.434-1.066-.147-1.334-.432zm1.824-.467c.095-.18.139-.378.126-.575v-2.38a1.055 1.055 0 0 0-.124-.564c-.053-.068-.128-.122-.215-.155s-.183-.045-.278-.033c-.095-.011-.191 0-.278.033s-.162.087-.216.155a1.03 1.03 0 0 0-.126.564v2.392c-.013.198.03.395.126.575.061.061.137.109.222.143s.177.05.27.05.186-.017.27-.05a.643.643 0 0 0 .222-.143v-.011zm2.503-4.351h1.133l.852 3.587.872-3.587h1.103l.111 5.178h-.815l-.087-3.599-.841 3.599h-.654l-.872-3.612-.081 3.612h-.824l.102-5.178zm5.341 0h1.765c1.017 0 1.525.49 1.525 1.47 0 .939-.535 1.408-1.606 1.406h-.601v2.301h-1.089l.007-5.178zm1.508 2.213c.108.012.217.003.32-.025s.199-.076.279-.139a.84.84 0 0 0 .157-.585 1.623 1.623 0 0 0-.052-.47c-.016-.052-.043-.1-.08-.142s-.084-.078-.138-.104a1.126 1.126 0 0 0-.486-.083h-.423v1.547h.423zm3.353-2.213h1.17l1.201 5.178h-1.015l-.237-1.194h-1.044l-.244 1.194H50.69l1.201-5.178zm1.001 3.385-.407-2.173-.407 2.173h.815zm2.34-3.385h.763l1.46 2.954V8.925h.904v5.178h-.726l-1.469-3.083v3.083h-.935l.002-5.178zm5.245 3.204-1.214-3.196h1.022l.741 2.053.695-2.053h1l-1.198 3.196v1.974h-1.046v-1.974zm-25.815 4.238v.271h-.889v2.104h-.373v-2.104h-.893v-.271h2.155zm2.787 2.375h-.288a.122.122 0 0 1-.081-.023.127.127 0 0 1-.048-.055l-.257-.564h-1.233l-.257.564a.158.158 0 0 1-.039.064.135.135 0 0 1-.081.023h-.288l1.089-2.375h.379l1.103 2.365zm-1.804-.882h1.029l-.436-.966a1.816 1.816 0 0 1-.081-.224l-.041.126-.039.1-.431.964zm3.682.649c.068.003.137.003.205 0a1.4 1.4 0 0 0 .331-.071c.048-.017.096-.038.146-.058v-.534h-.436c-.011 0-.022-.001-.032-.004s-.019-.008-.027-.015c-.007-.005-.013-.012-.017-.019s-.006-.016-.005-.024v-.182h.845v.91a1.663 1.663 0 0 1-.732.243c-.106.01-.212.015-.318.015a1.692 1.692 0 0 1-.549-.088 1.359 1.359 0 0 1-.436-.248 1.145 1.145 0 0 1-.281-.376 1.173 1.173 0 0 1-.1-.493 1.237 1.237 0 0 1 .098-.496c.063-.141.158-.269.281-.376.124-.107.273-.191.436-.246.187-.061.385-.091.584-.088.101 0 .203.007.303.021a1.5 1.5 0 0 1 .259.06 1.28 1.28 0 0 1 .408.218l-.105.147c-.008.013-.02.025-.035.033s-.032.012-.05.013a.145.145 0 0 1-.068-.019 1.418 1.418 0 0 1-.107-.056 1.008 1.008 0 0 0-.146-.064 1.509 1.509 0 0 0-.2-.053 1.826 1.826 0 0 0-.277-.021 1.301 1.301 0 0 0-.421.066.84.84 0 0 0-.523.483 1.114 1.114 0 0 0 0 .792.845.845 0 0 0 .218.299.93.93 0 0 0 .318.188c.139.041.285.057.431.047zm3.474-.038h1.19v.271h-1.554v-2.375h.373l-.009 2.104zm2.427.271h-.373v-2.375h.373v2.375zm1.386-2.364a.204.204 0 0 1 .057.043l1.593 1.79a.603.603 0 0 1 0-.085v-1.769h.325v2.384h-.187a.184.184 0 0 1-.081-.013.205.205 0 0 1-.059-.045l-1.591-1.788v1.846h-.312v-2.375h.194c.021 0 .042.004.061.011zm4.717-.011v.261h-1.32v.784h1.07v.252h-1.07v.81h1.32v.261h-1.704v-2.369h1.704zM12.285 1.702 28.83 5.756v14.205l-16.545-4.052V1.702zM11.224.491v16.108l18.665 4.575V5.068L11.224.492z"
            />
            <path d="M21.228 28.651 2.56 24.073V7.967l18.668 4.576v16.108z" />
            <path d="m11.533 1.519 16.329 4.003-6.944 5.994L4.586 7.511l6.947-5.992zM11.224.491 2.56 7.967l18.668 4.576 8.662-7.476L11.225.491zm11.054 27.254 7.611-6.569-7.611-1.867v8.436z" />
        </symbol>
        <symbol id="icon-twitter" viewBox="0 0 32 32">
            <path
                fill="#f4f4fd"
                style="fill: var(--color3, #f4f4fd);"
                d="M32 6.078c-1.19.522-2.458.868-3.78 1.036a6.523 6.523 0 0 0 2.886-3.626 13.11 13.11 0 0 1-4.16 1.588A6.574 6.574 0 0 0 22.154 3c-3.632 0-6.556 2.948-6.556 6.562 0 .52.044 1.02.152 1.496-5.454-.266-10.28-2.88-13.522-6.862a6.605 6.605 0 0 0-.898 3.316 6.57 6.57 0 0 0 2.914 5.452 6.479 6.479 0 0 1-2.964-.808v.072c0 3.188 2.274 5.836 5.256 6.446a6.548 6.548 0 0 1-1.72.216 5.8 5.8 0 0 1-1.242-.112c.85 2.598 3.262 4.508 6.13 4.57a13.182 13.182 0 0 1-8.134 2.798c-.538 0-1.054-.024-1.57-.09A18.469 18.469 0 0 0 10.064 29c12.072 0 18.672-10 18.672-18.668 0-.29-.01-.57-.024-.848A13.087 13.087 0 0 0 32 6.078z"
            />
        </symbol>
        <symbol id="icon-close-icon" viewBox="0 0 32 32"><path d="M32 3.223 28.777 0 16 12.777 3.223 0 0 3.223 12.777 16 0 28.777 3.223 32 16 19.223 28.777 32 32 28.777 19.223 16 32 3.223z" /></symbol>
        <symbol id="icon-person" viewBox="0 0 32 32">
            <path
                d="M16 16c2.947 0 5.333-2.387 5.333-5.333s-2.387-5.333-5.333-5.333c-2.947 0-5.333 2.387-5.333 5.333s2.387 5.333 5.333 5.333zM16 18.667c-3.56 0-10.667 1.787-10.667 5.333v1.333c0 0.733 0.6 1.333 1.333 1.333h18.667c0.733 0 1.333-0.6 1.333-1.333v-1.333c0-3.547-7.107-5.333-10.667-5.333z"
            ></path>
        </symbol>
        <symbol id="icon-phone" viewBox="0 0 24 32">
            <path
                d="M19.635 18.487l-2.451-0.28c-0.589-0.067-1.167 0.135-1.582 0.55l-1.775 1.775c-2.731-1.389-4.969-3.618-6.359-6.359l1.785-1.785c0.415-0.415 0.618-0.994 0.55-1.582l-0.28-2.432c-0.116-0.975-0.936-1.708-1.92-1.708h-1.669c-1.090 0-1.997 0.907-1.93 1.997 0.511 8.24 7.102 14.821 15.332 15.332 1.090 0.068 1.997-0.839 1.997-1.93v-1.669c0.010-0.975-0.724-1.795-1.698-1.911v0z"
            ></path>
        </symbol>
        <symbol id="icon-email" viewBox="0 0 24 32">
            <path
                d="M20 8h-16c-1.1 0-1.99 0.9-1.99 2l-0.010 12c0 1.1 0.9 2 2 2h16c1.1 0 2-0.9 2-2v-12c0-1.1-0.9-2-2-2zM19.6 12.25l-7.070 4.42c-0.32 0.2-0.74 0.2-1.060 0l-7.070-4.42c-0.25-0.16-0.4-0.43-0.4-0.72 0-0.67 0.73-1.070 1.3-0.72l6.7 4.19 6.7-4.19c0.57-0.35 1.3 0.050 1.3 0.72 0 0.29-0.15 0.56-0.4 0.72z"
            ></path>
        </symbol>
        <symbol id="icon-vector" viewBox="0 0 40 32">
<path d="M33.843 1.958c0.657-0.578 1.532-0.897 2.44-0.891s1.777 0.338 2.425 0.925c0.648 0.587 1.023 1.383 1.047 2.221s-0.305 1.651-0.919 2.269l-18.62 21.495c-0.32 0.318-0.707 0.574-1.136 0.751s-0.893 0.273-1.364 0.281c-0.47 0.008-0.938-0.072-1.374-0.234s-0.833-0.405-1.166-0.712l-12.348-11.398c-0.344-0.296-0.62-0.652-0.811-1.049s-0.294-0.824-0.302-1.258c-0.008-0.434 0.078-0.865 0.254-1.267s0.438-0.768 0.77-1.075 0.728-0.549 1.164-0.711c0.436-0.162 0.903-0.242 1.373-0.235s0.933 0.103 1.363 0.279c0.429 0.177 0.816 0.431 1.136 0.749l9.772 9.016 16.207-19.062c0.029-0.033 0.060-0.065 0.093-0.095h-0.005z"></path>
</symbol>
<symbol id="icon-subscribe" viewBox="0 0 32 32">
<path d="M32 2.667l-32 15 10.227 3.156 15.773-12.323-11.998 13.488 0.010 0.003-0.012-0.003v7.345l5.735-5.576 7.265 2.242 5-23.333z"></path>
</symbol>
    </defs>
</svg>
